<svg version="1.1" xmlns="http://www.w3.org/2000/svg" viewBox="0 0 1303.25 662.5" width="1303.25" height="662.5" filter="invert(93%) hue-rotate(180deg)">
  <!-- svg-source:excalidraw -->
  
  <defs>
    <style class="style-fonts">
      @font-face {
        font-family: "Virgil";
        src: url("https://excalidraw.com/Virgil.woff2");
      }
      @font-face {
        font-family: "Cascadia";
        src: url("https://excalidraw.com/Cascadia.woff2");
      }
      @font-face {
        font-family: "Assistant";
        src: url("https://excalidraw.com/Assistant-Regular.woff2");
      }
    </style>
    
  </defs>
  <g stroke-linecap="round" transform="translate(10 308) rotate(0 296 171.5)"><path d="M32 0 C162.11 -1.06, 292.37 -2.02, 560 0 M32 0 C209.02 0.43, 385.43 0.58, 560 0 M560 0 C580.93 -0.23, 593.96 8.74, 592 32 M560 0 C580.67 -0.6, 590.96 9.93, 592 32 M592 32 C593.02 108.72, 590.93 184.5, 592 311 M592 32 C592.95 123.72, 593.05 214.1, 592 311 M592 311 C592.07 331.63, 583.28 343.79, 560 343 M592 311 C594.05 334.05, 580.05 343.1, 560 343 M560 343 C365.42 343.07, 170.6 343.9, 32 343 M560 343 C360.06 345.17, 160.78 345.27, 32 343 M32 343 C11.19 342.68, 1.8 330.5, 0 311 M32 343 C9.77 343.56, -2.19 332.15, 0 311 M0 311 C-1.19 227.41, -2.19 143.24, 0 32 M0 311 C0.02 218.8, 0.79 126.66, 0 32 M0 32 C1.34 10.22, 10.78 -0.06, 32 0 M0 32 C-1.79 8.77, 10.09 -0.33, 32 0" stroke="#e03131" stroke-width="2" fill="none"></path></g><g stroke-linecap="round" transform="translate(52 573) rotate(0 60 19)"><path d="M9.5 0 C30.66 -0.48, 51.54 1.87, 110.5 0 M9.5 0 C35.86 -0.91, 62.47 0.08, 110.5 0 M110.5 0 C117.55 -1.11, 119.53 3.76, 120 9.5 M110.5 0 C117.37 1.77, 117.81 2.46, 120 9.5 M120 9.5 C118.63 13.12, 118.8 20.36, 120 28.5 M120 9.5 C119.02 14.28, 119.8 20.54, 120 28.5 M120 28.5 C121.75 35.18, 116.56 37.64, 110.5 38 M120 28.5 C119.97 34.05, 114.72 39.02, 110.5 38 M110.5 38 C81.74 39.64, 50.17 39.31, 9.5 38 M110.5 38 C87.5 36.6, 64.28 37.5, 9.5 38 M9.5 38 C2.9 39.48, -0.33 34.79, 0 28.5 M9.5 38 C5.28 40.05, -2.14 35.08, 0 28.5 M0 28.5 C-1.25 25.85, 0.88 20.51, 0 9.5 M0 28.5 C0.65 23.99, -0.07 18.46, 0 9.5 M0 9.5 C-0.71 3.18, 2.03 -0.42, 9.5 0 M0 9.5 C1.66 2.4, 3.63 -2.27, 9.5 0" stroke="#e03131" stroke-width="2" fill="none"></path></g><g transform="translate(84.70002746582031 579.5) rotate(0 27.299972534179688 12.5)"><text x="27.299972534179688" y="17.52" font-family="Virgil, Segoe UI Emoji" font-size="20px" fill="#e03131" text-anchor="middle" style="white-space: pre;" direction="ltr" dominant-baseline="alphabetic">Test1</text></g><g stroke-linecap="round" transform="translate(185 572) rotate(0 60 19)"><path d="M9.5 0 C42.95 -0.69, 75.36 -1.28, 110.5 0 M9.5 0 C41.36 -0.25, 72.47 -1.52, 110.5 0 M110.5 0 C117.9 0.56, 120.77 3.5, 120 9.5 M110.5 0 C114.73 0.73, 119.15 5.11, 120 9.5 M120 9.5 C118.6 12.46, 121.3 16.93, 120 28.5 M120 9.5 C120.44 16.06, 120.5 23.58, 120 28.5 M120 28.5 C120.19 34.25, 117.59 39.99, 110.5 38 M120 28.5 C118.17 34.43, 118.43 36.09, 110.5 38 M110.5 38 C71.8 38.24, 33.7 39.24, 9.5 38 M110.5 38 C71.07 37.06, 31.3 37.31, 9.5 38 M9.5 38 C2.94 39.61, -1.31 32.95, 0 28.5 M9.5 38 C4.2 38.11, -2.19 35.96, 0 28.5 M0 28.5 C1.31 23.73, -1.31 20.42, 0 9.5 M0 28.5 C0.21 22.29, 1.12 15.29, 0 9.5 M0 9.5 C0.1 1.8, 4.52 -0.12, 9.5 0 M0 9.5 C-2.26 1.71, 3.69 -0.04, 9.5 0" stroke="#e03131" stroke-width="2" fill="none"></path></g><g transform="translate(221.9700164794922 578.5) rotate(0 23.029983520507812 12.5)"><text x="23.029983520507812" y="17.52" font-family="Virgil, Segoe UI Emoji" font-size="20px" fill="#e03131" text-anchor="middle" style="white-space: pre;" direction="ltr" dominant-baseline="alphabetic">DNS1</text></g><g stroke-linecap="round" transform="translate(313 571) rotate(0 60 19)"><path d="M9.5 0 C46.13 1.48, 80.03 1.21, 110.5 0 M9.5 0 C46.56 -0.75, 81.11 -0.04, 110.5 0 M110.5 0 C116.26 1.52, 121.48 2.76, 120 9.5 M110.5 0 C115.38 1.65, 120.15 3.01, 120 9.5 M120 9.5 C119.12 14.06, 118.77 20.49, 120 28.5 M120 9.5 C120.12 14.98, 120.43 21.02, 120 28.5 M120 28.5 C118.59 34.03, 118.13 36.59, 110.5 38 M120 28.5 C120.77 33.67, 114.93 38.03, 110.5 38 M110.5 38 C90.53 38.59, 65.93 38.67, 9.5 38 M110.5 38 C76.51 36.98, 43.63 37.94, 9.5 38 M9.5 38 C3.43 39.3, -0.28 35.68, 0 28.5 M9.5 38 C1 39.93, -0.43 36.47, 0 28.5 M0 28.5 C-0.88 23.04, -0.65 21.99, 0 9.5 M0 28.5 C0.89 23.6, -0.38 19.43, 0 9.5 M0 9.5 C1.57 2.63, 3.72 0.62, 9.5 0 M0 9.5 C-0.55 2.48, 4.29 0.75, 9.5 0" stroke="#e03131" stroke-width="2" fill="none"></path></g><g transform="translate(343.33001708984375 577.5) rotate(0 29.66998291015625 12.5)"><text x="29.66998291015625" y="17.52" font-family="Virgil, Segoe UI Emoji" font-size="20px" fill="#e03131" text-anchor="middle" style="white-space: pre;" direction="ltr" dominant-baseline="alphabetic">LDAP1</text></g><g stroke-linecap="round" transform="translate(441 570) rotate(0 60 19)"><path d="M9.5 0 C34.84 -0.75, 64.47 -1.2, 110.5 0 M9.5 0 C33.88 -0.32, 59.61 -1.79, 110.5 0 M110.5 0 C117.39 0.67, 119.31 3.07, 120 9.5 M110.5 0 C115.84 0.32, 121.16 3.32, 120 9.5 M120 9.5 C120.66 16.52, 121.62 23.83, 120 28.5 M120 9.5 C119.15 17.19, 119.48 23.79, 120 28.5 M120 28.5 C119.85 33.65, 117.43 39.22, 110.5 38 M120 28.5 C121.3 35.24, 119.07 36.87, 110.5 38 M110.5 38 C86.06 37.29, 60.54 37.51, 9.5 38 M110.5 38 C72.2 38.84, 31.65 38.5, 9.5 38 M9.5 38 C4.92 37.15, -0.57 33.35, 0 28.5 M9.5 38 C3.37 38.34, 1.4 36.59, 0 28.5 M0 28.5 C-0.12 23.9, -0.65 14.48, 0 9.5 M0 28.5 C-0.77 21.9, -0.78 13.66, 0 9.5 M0 9.5 C-1.29 1.53, 5.16 0.95, 9.5 0 M0 9.5 C-0.78 2.72, 2.91 1.71, 9.5 0" stroke="#e03131" stroke-width="2" fill="none"></path></g><g transform="translate(475.9500274658203 576.5) rotate(0 25.049972534179688 12.5)"><text x="25.049972534179688" y="17.52" font-family="Virgil, Segoe UI Emoji" font-size="20px" fill="#e03131" text-anchor="middle" style="white-space: pre;" direction="ltr" dominant-baseline="alphabetic">User1</text></g><g stroke-linecap="round" transform="translate(51 501) rotate(0 253 23.5)"><path d="M11.75 0 C147.58 -1.88, 282.72 -1.87, 494.25 0 M11.75 0 C133.21 -0.61, 255.16 -0.76, 494.25 0 M494.25 0 C503.01 -1.1, 504.01 4.44, 506 11.75 M494.25 0 C501.13 -1.2, 508.2 1.92, 506 11.75 M506 11.75 C505.07 15.68, 505.14 23.71, 506 35.25 M506 11.75 C506.3 19.15, 505.66 25.13, 506 35.25 M506 35.25 C505.68 43.15, 503.86 46.06, 494.25 47 M506 35.25 C506.98 44.26, 502.54 47.01, 494.25 47 M494.25 47 C379.52 49.81, 264.19 49.78, 11.75 47 M494.25 47 C327.36 44.69, 161.57 45.23, 11.75 47 M11.75 47 C2.2 47.92, 1.72 45.02, 0 35.25 M11.75 47 C2.88 45.49, 1.3 44.17, 0 35.25 M0 35.25 C0.97 28.05, 1.02 22.62, 0 11.75 M0 35.25 C0.96 25.11, 0.99 17.79, 0 11.75 M0 11.75 C0.97 5.03, 2.25 -1.23, 11.75 0 M0 11.75 C2.03 5.52, 4.33 -1.87, 11.75 0" stroke="#e03131" stroke-width="2" fill="none"></path></g><g transform="translate(214.37007904052734 512) rotate(0 89.62992095947266 12.5)"><text x="89.62992095947266" y="17.52" font-family="Virgil, Segoe UI Emoji" font-size="20px" fill="#e03131" text-anchor="middle" style="white-space: pre;" direction="ltr" dominant-baseline="alphabetic">Switch (10.x.1.0/16)</text></g><g stroke-linecap="round"><g transform="translate(113 571) rotate(0 0 -9.5)"><path d="M-0.09 0.07 C0.03 -3.1, 0.2 -15.52, 0.28 -18.69 M-0.81 -0.37 C-0.68 -3.72, -0.18 -16.51, 0 -19.49" stroke="#e03131" stroke-width="2" fill="none"></path></g></g><mask></mask><g stroke-linecap="round"><g transform="translate(246 570) rotate(0 0 -9.5)"><path d="M-0.18 0.14 C-0.16 -2.93, 0.22 -15.79, 0.28 -18.92 M0.72 -0.27 C0.69 -3.19, 0.12 -14.97, -0.01 -18.18" stroke="#e03131" stroke-width="2" fill="none"></path></g></g><mask></mask><g stroke-linecap="round"><g transform="translate(375 570) rotate(0 0 -9.5)"><path d="M-0.48 -0.33 C-0.5 -3.64, 0.12 -16.38, 0.2 -19.55 M0.27 0.7 C0.18 -2.6, -0.02 -15.86, -0.13 -19.13" stroke="#e03131" stroke-width="2" fill="none"></path></g></g><mask></mask><g stroke-linecap="round"><g transform="translate(504 567) rotate(0 0 -9)"><path d="M0.05 -0.18 C0.06 -3.23, -0.37 -14.99, -0.4 -17.98 M-0.59 -0.76 C-0.36 -3.73, 0.62 -14.46, 0.63 -17.26" stroke="#e03131" stroke-width="2" fill="none"></path></g></g><mask></mask><g transform="translate(489 616) rotate(0 12.569992065429688 12.5)"><text x="0" y="17.52" font-family="Virgil, Segoe UI Emoji" font-size="20px" fill="#e03131" text-anchor="start" style="white-space: pre;" direction="ltr" dominant-baseline="alphabetic">.12</text></g><g transform="translate(365 614) rotate(0 8.159996032714844 12.5)"><text x="0" y="17.52" font-family="Virgil, Segoe UI Emoji" font-size="20px" fill="#e03131" text-anchor="start" style="white-space: pre;" direction="ltr" dominant-baseline="alphabetic">.11</text></g><g transform="translate(239 613) rotate(0 12.329994201660156 12.5)"><text x="0" y="17.52" font-family="Virgil, Segoe UI Emoji" font-size="20px" fill="#e03131" text-anchor="start" style="white-space: pre;" direction="ltr" dominant-baseline="alphabetic">.10</text></g><g transform="translate(98 616) rotate(0 14.919990539550781 12.5)"><text x="0" y="17.52" font-family="Virgil, Segoe UI Emoji" font-size="20px" fill="#e03131" text-anchor="start" style="white-space: pre;" direction="ltr" dominant-baseline="alphabetic">.99</text></g><g transform="translate(41 332) rotate(0 52.734375 12)"><text x="0" y="19.3125" font-family="Cascadia, Segoe UI Emoji" font-size="20px" fill="#e03131" text-anchor="start" style="white-space: pre;" direction="ltr" dominant-baseline="alphabetic">host-t07a</text></g><g stroke-linecap="round" transform="translate(53 439) rotate(0 50.5 20)"><path d="M10 0 C28.47 1.07, 47.66 -0.19, 91 0 M10 0 C37.34 -1.05, 63.52 -0.42, 91 0 M91 0 C96.95 -1, 99.06 1.95, 101 10 M91 0 C99.29 1.28, 99.64 5.1, 101 10 M101 10 C101.01 14.47, 102.78 23.05, 101 30 M101 10 C100.53 15.86, 100.39 22.27, 101 30 M101 30 C100.53 36.33, 97.79 40.63, 91 40 M101 30 C101.22 36.52, 97.92 42.25, 91 40 M91 40 C67.26 40.86, 44.11 39.1, 10 40 M91 40 C59.62 38.97, 29.47 39.87, 10 40 M10 40 C2.57 39.64, -1.35 35.11, 0 30 M10 40 C4.11 41.74, 0.73 36.79, 0 30 M0 30 C-1.86 24.86, -0.55 21.46, 0 10 M0 30 C0.01 23.69, -0.6 19.31, 0 10 M0 10 C0.42 1.88, 1.46 -0.55, 10 0 M0 10 C2.06 3.63, 2.63 -2.16, 10 0" stroke="#e03131" stroke-width="2" fill="none"></path></g><g transform="translate(87.2400131225586 446.5) rotate(0 16.259986877441406 12.5)"><text x="16.259986877441406" y="17.52" font-family="Virgil, Segoe UI Emoji" font-size="20px" fill="#e03131" text-anchor="middle" style="white-space: pre;" direction="ltr" dominant-baseline="alphabetic">br0</text></g><g stroke-linecap="round"><g transform="translate(109 497) rotate(0 -0.5 -9)"><path d="M0.37 -0.37 C0.19 -3.43, -0.42 -15.43, -0.72 -18.34 M-0.1 0.64 C-0.36 -2.36, -0.97 -14.85, -1.01 -17.82" stroke="#e03131" stroke-width="2" fill="none"></path></g></g><mask></mask><g stroke-linecap="round" transform="translate(199 308) rotate(0 41.5 18)"><path d="M9 0 C26.81 -0.1, 42.78 -0.21, 74 0 M9 0 C29.77 0.3, 49.38 -0.25, 74 0 M74 0 C79.82 -1.52, 84.61 2.3, 83 9 M74 0 C77.79 -1.25, 82.71 1.43, 83 9 M83 9 C84.34 15.32, 82.04 18.23, 83 27 M83 9 C83.88 15.48, 83.42 20.76, 83 27 M83 27 C84.87 34.44, 78.25 37.26, 74 36 M83 27 C81.14 32.47, 82.23 34.8, 74 36 M74 36 C61.98 37.32, 46.6 36.18, 9 36 M74 36 C51.91 35.66, 30.82 35.49, 9 36 M9 36 C1.55 35.27, -0.6 31.5, 0 27 M9 36 C3.83 37.21, -1.02 33.23, 0 27 M0 27 C0.68 23.75, -1.67 20.5, 0 9 M0 27 C-0.5 22.7, -0.9 17.29, 0 9 M0 9 C-0.66 2.06, 1.17 -1.25, 9 0 M0 9 C2 1.75, 4.66 -1.63, 9 0" stroke="#e03131" stroke-width="2" fill="none"></path></g><g transform="translate(213.56002044677734 313.5) rotate(0 26.939979553222656 12.5)"><text x="26.939979553222656" y="17.52" font-family="Virgil, Segoe UI Emoji" font-size="20px" fill="#e03131" text-anchor="middle" style="white-space: pre;" direction="ltr" dominant-baseline="alphabetic">wlan0</text></g><g stroke-linecap="round" transform="translate(295.5 371) rotate(0 41.5 18)"><path d="M9 0 C25.88 -1.07, 39.03 -0.77, 74 0 M9 0 C26.24 0.35, 44.38 -0.04, 74 0 M74 0 C81.27 1.09, 82.53 4.06, 83 9 M74 0 C79.9 0.18, 84.76 2.33, 83 9 M83 9 C82.63 14.52, 83.22 19.12, 83 27 M83 9 C82.94 14.14, 82.33 18.29, 83 27 M83 27 C81.8 32.79, 80.92 37.87, 74 36 M83 27 C81.84 32.79, 79.54 33.94, 74 36 M74 36 C58.13 37.5, 45.74 37.45, 9 36 M74 36 C48.63 35.73, 21.94 37.18, 9 36 M9 36 C4.07 37.87, -1.08 31.99, 0 27 M9 36 C3.55 34.28, -1.22 33.33, 0 27 M0 27 C-0.32 22.12, -0.9 15.57, 0 9 M0 27 C-0.78 22.04, 0.22 18.1, 0 9 M0 9 C1.25 2.31, 3.93 -0.58, 9 0 M0 9 C-1.12 0.84, 3.64 0.51, 9 0" stroke="#e03131" stroke-width="2" fill="none"></path></g><g transform="translate(312.8700256347656 376.5) rotate(0 24.129974365234375 12.5)"><text x="24.129974365234375" y="17.52" font-family="Virgil, Segoe UI Emoji" font-size="20px" fill="#e03131" text-anchor="middle" style="white-space: pre;" direction="ltr" dominant-baseline="alphabetic">tap0</text></g><g transform="translate(324 415) rotate(0 13.809989929199219 12.5)"><text x="0" y="17.52" font-family="Virgil, Segoe UI Emoji" font-size="20px" fill="#e03131" text-anchor="start" style="white-space: pre;" direction="ltr" dominant-baseline="alphabetic">.x.1</text></g><g stroke-linecap="round" transform="translate(502.5 441) rotate(0 50.5 20)"><path d="M10 0 C28.45 -2.22, 47.01 0.81, 91 0 M10 0 C31.94 0.04, 55.56 -0.27, 91 0 M91 0 C97.04 1.55, 102.37 4.68, 101 10 M91 0 C99.4 0.42, 100.11 4.96, 101 10 M101 10 C99.16 15.08, 100.64 21.1, 101 30 M101 10 C101.73 17.35, 100.13 24.98, 101 30 M101 30 C100.18 36, 97.81 39.61, 91 40 M101 30 C99.8 36.72, 96.45 41.74, 91 40 M91 40 C68.63 40.11, 44.45 38, 10 40 M91 40 C70.94 39.18, 50.52 39.65, 10 40 M10 40 C3.9 38.84, -1.07 38.03, 0 30 M10 40 C2.81 41.03, -1.35 34.62, 0 30 M0 30 C-0.96 26.28, 0.67 20.22, 0 10 M0 30 C0.72 24.06, 0.45 20.99, 0 10 M0 10 C1.31 2.59, 1.97 -1.18, 10 0 M0 10 C-1.83 1.2, 4.83 1.98, 10 0" stroke="#e03131" stroke-width="2" fill="none"></path></g><g transform="translate(530.0600204467773 448.5) rotate(0 22.939979553222656 12.5)"><text x="22.939979553222656" y="17.52" font-family="Virgil, Segoe UI Emoji" font-size="20px" fill="#e03131" text-anchor="middle" style="white-space: pre;" direction="ltr" dominant-baseline="alphabetic">eth0</text></g><g stroke-linecap="round" transform="translate(701.25 309.5) rotate(0 296 171.5)"><path d="M32 0 C176.74 2.12, 322.04 1.15, 560 0 M32 0 C203.45 -2.45, 374.95 -2.12, 560 0 M560 0 C580.57 1.7, 593.64 9.77, 592 32 M560 0 C581.65 -1.78, 591.35 8.55, 592 32 M592 32 C592.58 135.45, 591.48 238.87, 592 311 M592 32 C593.31 113.5, 593.74 194.29, 592 311 M592 311 C593.91 332.39, 583.1 341.96, 560 343 M592 311 C594.22 330.91, 581.08 341.03, 560 343 M560 343 C398.75 344.6, 238.08 345.15, 32 343 M560 343 C431.99 344.79, 303.48 344.36, 32 343 M32 343 C12.18 341.5, 0.28 334.16, 0 311 M32 343 C11.11 345.16, -2.19 333.64, 0 311 M0 311 C-3.07 218.72, -1.15 128.32, 0 32 M0 311 C-1.39 243.4, -1.41 175.63, 0 32 M0 32 C1.11 11.19, 10.99 -1.6, 32 0 M0 32 C0.91 9.29, 12.34 1.19, 32 0" stroke="#1971c2" stroke-width="2" fill="none"></path></g><g stroke-linecap="round" transform="translate(743.25 574.5) rotate(0 60 19)"><path d="M9.5 0 C31.8 -1.88, 54.57 -2.55, 110.5 0 M9.5 0 C49.96 0.85, 89.56 1.81, 110.5 0 M110.5 0 C118.47 -0.9, 120.28 1.62, 120 9.5 M110.5 0 C116.19 -2.12, 121.59 2.25, 120 9.5 M120 9.5 C120.6 14.96, 120.02 19.91, 120 28.5 M120 9.5 C119.97 12.99, 120.82 17.77, 120 28.5 M120 28.5 C121.76 33.8, 118.77 36.76, 110.5 38 M120 28.5 C119.75 32.87, 116.95 38.65, 110.5 38 M110.5 38 C73.43 39.81, 34.56 37.34, 9.5 38 M110.5 38 C72.44 37.55, 34.74 37.57, 9.5 38 M9.5 38 C3.44 39.82, 0.39 36.71, 0 28.5 M9.5 38 C0.98 39.31, 0.59 36.92, 0 28.5 M0 28.5 C1.13 19.75, -0.97 14.74, 0 9.5 M0 28.5 C0.06 22.16, 0.5 17.51, 0 9.5 M0 9.5 C0.33 1.57, 3.96 -1.2, 9.5 0 M0 9.5 C1.68 4.36, 4.99 1.96, 9.5 0" stroke="#1971c2" stroke-width="2" fill="none"></path></g><g transform="translate(771.5400314331055 581) rotate(0 31.70996856689453 12.5)"><text x="31.70996856689453" y="17.52" font-family="Virgil, Segoe UI Emoji" font-size="20px" fill="#1971c2" text-anchor="middle" style="white-space: pre;" direction="ltr" dominant-baseline="alphabetic">Test2</text></g><g stroke-linecap="round" transform="translate(876.25 573.5) rotate(0 60 19)"><path d="M9.5 0 C35.08 1.14, 54.85 1.49, 110.5 0 M9.5 0 C39.56 -1.31, 68.13 -1.63, 110.5 0 M110.5 0 C116.27 -1.84, 121.39 2.37, 120 9.5 M110.5 0 C115.33 2.16, 120.63 3.68, 120 9.5 M120 9.5 C118.4 15.26, 120.24 23.04, 120 28.5 M120 9.5 C121.02 13.46, 121.1 17.82, 120 28.5 M120 28.5 C119.78 33.12, 116.93 38.56, 110.5 38 M120 28.5 C121.62 34.19, 117.16 38.38, 110.5 38 M110.5 38 C73.34 39.06, 33.66 37.98, 9.5 38 M110.5 38 C88.1 38.15, 65.61 38.18, 9.5 38 M9.5 38 C1.26 39.14, 0.51 36.65, 0 28.5 M9.5 38 C5.39 36.32, -2.14 36.03, 0 28.5 M0 28.5 C0.03 24.24, -0.4 19.69, 0 9.5 M0 28.5 C0.05 23.49, 0.27 19.43, 0 9.5 M0 9.5 C1.46 4.2, 4.76 1.7, 9.5 0 M0 9.5 C-1.09 4.75, 1.62 1.5, 9.5 0" stroke="#1971c2" stroke-width="2" fill="none"></path></g><g transform="translate(908.8100204467773 580) rotate(0 27.439979553222656 12.5)"><text x="27.439979553222656" y="17.52" font-family="Virgil, Segoe UI Emoji" font-size="20px" fill="#1971c2" text-anchor="middle" style="white-space: pre;" direction="ltr" dominant-baseline="alphabetic">DNS2</text></g><g stroke-linecap="round" transform="translate(1005.25 572.5) rotate(0 60 19)"><path d="M9.5 0 C40.28 -1.01, 73.18 1.39, 110.5 0 M9.5 0 C34.98 -0.14, 61.71 0.38, 110.5 0 M110.5 0 C115.53 1.87, 120.54 3.61, 120 9.5 M110.5 0 C118.04 -0.19, 121.81 1.25, 120 9.5 M120 9.5 C118.78 16.08, 120.08 20.7, 120 28.5 M120 9.5 C120.08 13.4, 120.23 19.2, 120 28.5 M120 28.5 C121.41 34.28, 117.12 38.33, 110.5 38 M120 28.5 C121.92 33.52, 115.91 39.81, 110.5 38 M110.5 38 C71.28 39.71, 33.63 38.48, 9.5 38 M110.5 38 C70.04 39.52, 31.73 39.86, 9.5 38 M9.5 38 C5.1 36.54, -1.86 35.87, 0 28.5 M9.5 38 C1.7 36.66, 1.59 34.74, 0 28.5 M0 28.5 C-1.4 23.62, 0.55 16.95, 0 9.5 M0 28.5 C0.62 24.81, 0.68 20.95, 0 9.5 M0 9.5 C-0.95 4.55, 1.82 1.31, 9.5 0 M0 9.5 C-1.8 0.96, 5.45 0.4, 9.5 0" stroke="#1971c2" stroke-width="2" fill="none"></path></g><g transform="translate(1031.170021057129 579) rotate(0 34.079978942871094 12.5)"><text x="34.079978942871094" y="17.52" font-family="Virgil, Segoe UI Emoji" font-size="20px" fill="#1971c2" text-anchor="middle" style="white-space: pre;" direction="ltr" dominant-baseline="alphabetic">LDAP2</text></g><g stroke-linecap="round" transform="translate(1132.25 571.5) rotate(0 60 19)"><path d="M9.5 0 C35.06 -0.55, 60.87 -1.39, 110.5 0 M9.5 0 C29.83 1.34, 51.74 0.63, 110.5 0 M110.5 0 C117.89 -0.17, 121.57 1.5, 120 9.5 M110.5 0 C115.7 0.31, 120.17 1.66, 120 9.5 M120 9.5 C119.02 18.85, 118.83 24.33, 120 28.5 M120 9.5 C120.68 13.31, 120.14 17.81, 120 28.5 M120 28.5 C121.67 33.69, 116.03 39.58, 110.5 38 M120 28.5 C121.68 35.56, 117.28 36.23, 110.5 38 M110.5 38 C74.39 38.53, 36.51 36.24, 9.5 38 M110.5 38 C75.43 38.19, 37.49 39.44, 9.5 38 M9.5 38 C1.89 36.83, 1.38 34.75, 0 28.5 M9.5 38 C3.45 37.38, 0.21 33.08, 0 28.5 M0 28.5 C-1.57 22.5, -1.19 16.37, 0 9.5 M0 28.5 C-0.6 22.47, -0.79 15.75, 0 9.5 M0 9.5 C-1.56 1.25, 5.15 0.34, 9.5 0 M0 9.5 C0.89 2.54, 1.35 -2.07, 9.5 0" stroke="#1971c2" stroke-width="2" fill="none"></path></g><g transform="translate(1162.7900314331055 578) rotate(0 29.45996856689453 12.5)"><text x="29.45996856689453" y="17.52" font-family="Virgil, Segoe UI Emoji" font-size="20px" fill="#1971c2" text-anchor="middle" style="white-space: pre;" direction="ltr" dominant-baseline="alphabetic">User2</text></g><g stroke-linecap="round" transform="translate(743.25 502.5) rotate(0 253 23.5)"><path d="M11.75 0 C162.39 1.18, 314.28 0.02, 494.25 0 M11.75 0 C201.95 -0.49, 392.04 -0.82, 494.25 0 M494.25 0 C501.1 0.27, 506.14 2.6, 506 11.75 M494.25 0 C504.28 0.07, 508.03 2.73, 506 11.75 M506 11.75 C504.14 21.17, 506.42 31.8, 506 35.25 M506 11.75 C506.87 17.58, 505.63 25.33, 506 35.25 M506 35.25 C507.46 43.71, 502.48 45.46, 494.25 47 M506 35.25 C507.74 41.36, 502.4 49.1, 494.25 47 M494.25 47 C340.6 45.25, 186.76 45.86, 11.75 47 M494.25 47 C384.42 47.82, 275.43 48.06, 11.75 47 M11.75 47 C4.16 46.46, 0.18 41.56, 0 35.25 M11.75 47 C5.2 47.61, 0.38 41.25, 0 35.25 M0 35.25 C1.18 28.86, 1.85 18.35, 0 11.75 M0 35.25 C-0.62 25.62, 1.15 18.08, 0 11.75 M0 11.75 C0.77 3.37, 2.34 -1.8, 11.75 0 M0 11.75 C1.23 5.6, 5.8 1.07, 11.75 0" stroke="#1971c2" stroke-width="2" fill="none"></path></g><g transform="translate(902.2100830078125 513.5) rotate(0 94.0399169921875 12.5)"><text x="94.0399169921875" y="17.52" font-family="Virgil, Segoe UI Emoji" font-size="20px" fill="#1971c2" text-anchor="middle" style="white-space: pre;" direction="ltr" dominant-baseline="alphabetic">Switch (10.x.2.0/16)</text></g><g stroke-linecap="round"><g transform="translate(804.25 572.5) rotate(0 0 -9.5)"><path d="M-0.36 0.52 C-0.4 -2.59, 0.04 -15.62, 0.15 -18.88 M0.46 0.3 C0.33 -2.96, -0.14 -16.65, -0.2 -19.78" stroke="#1971c2" stroke-width="2" fill="none"></path></g></g><mask></mask><g stroke-linecap="round"><g transform="translate(937.25 571.5) rotate(0 0 -9.5)"><path d="M0.15 0.12 C0.26 -3.14, 0.24 -15.78, 0.29 -19.05 M-0.44 -0.29 C-0.35 -3.23, -0.12 -15.24, 0.01 -18.37" stroke="#1971c2" stroke-width="2" fill="none"></path></g></g><mask></mask><g stroke-linecap="round"><g transform="translate(1066.25 571.5) rotate(0 0 -9.5)"><path d="M0.29 -0.05 C0.34 -3.31, 0.53 -16.31, 0.43 -19.46 M-0.23 -0.54 C-0.23 -3.76, 0.31 -16.04, 0.22 -18.99" stroke="#1971c2" stroke-width="2" fill="none"></path></g></g><mask></mask><g stroke-linecap="round"><g transform="translate(1195.25 568.5) rotate(0 0 -9)"><path d="M0.43 -0.46 C0.34 -3.44, -0.21 -14.94, -0.27 -17.93 M-0.01 0.5 C0.06 -2.38, 0.87 -14.12, 0.82 -17.19" stroke="#1971c2" stroke-width="2" fill="none"></path></g></g><mask></mask><g transform="translate(1180.25 617.5) rotate(0 12.569992065429688 12.5)"><text x="0" y="17.52" font-family="Virgil, Segoe UI Emoji" font-size="20px" fill="#1971c2" text-anchor="start" style="white-space: pre;" direction="ltr" dominant-baseline="alphabetic">.12</text></g><g transform="translate(1056.25 615.5) rotate(0 8.159996032714844 12.5)"><text x="0" y="17.52" font-family="Virgil, Segoe UI Emoji" font-size="20px" fill="#1971c2" text-anchor="start" style="white-space: pre;" direction="ltr" dominant-baseline="alphabetic">.11</text></g><g transform="translate(930.25 614.5) rotate(0 12.329994201660156 12.5)"><text x="0" y="17.52" font-family="Virgil, Segoe UI Emoji" font-size="20px" fill="#1971c2" text-anchor="start" style="white-space: pre;" direction="ltr" dominant-baseline="alphabetic">.10</text></g><g transform="translate(789.25 617.5) rotate(0 14.919990539550781 12.5)"><text x="0" y="17.52" font-family="Virgil, Segoe UI Emoji" font-size="20px" fill="#1971c2" text-anchor="start" style="white-space: pre;" direction="ltr" dominant-baseline="alphabetic">.99</text></g><g transform="translate(732.25 333.5) rotate(0 52.734375 12)"><text x="0" y="19.3125" font-family="Cascadia, Segoe UI Emoji" font-size="20px" fill="#1971c2" text-anchor="start" style="white-space: pre;" direction="ltr" dominant-baseline="alphabetic">host-t07b</text></g><g stroke-linecap="round" transform="translate(1145.25 437.5) rotate(0 50.5 20)"><path d="M10 0 C40.42 0.19, 74.82 1.49, 91 0 M10 0 C32.88 -0.7, 53.69 0.65, 91 0 M91 0 C99.13 0.63, 101.39 1.8, 101 10 M91 0 C99.4 -1.72, 101.32 5.43, 101 10 M101 10 C102.32 16.9, 103 24.71, 101 30 M101 10 C100.18 13.96, 101.51 19.04, 101 30 M101 30 C101.24 36.12, 97.85 38.47, 91 40 M101 30 C102.28 37.27, 98.04 38.16, 91 40 M91 40 C64.53 42.18, 37.7 39.64, 10 40 M91 40 C60.33 39.57, 32.21 40.7, 10 40 M10 40 C4.1 39.46, -1.58 34.87, 0 30 M10 40 C4.56 41.69, 1.88 37.73, 0 30 M0 30 C-0.95 26.63, 1.37 23.01, 0 10 M0 30 C0.59 25.86, -0.84 20.72, 0 10 M0 10 C-0.47 1.68, 1.76 -0.17, 10 0 M0 10 C1.65 4.53, 4.44 1.96, 10 0" stroke="#1971c2" stroke-width="2" fill="none"></path></g><g transform="translate(1179.4900131225586 445) rotate(0 16.259986877441406 12.5)"><text x="16.259986877441406" y="17.52" font-family="Virgil, Segoe UI Emoji" font-size="20px" fill="#1971c2" text-anchor="middle" style="white-space: pre;" direction="ltr" dominant-baseline="alphabetic">br0</text></g><g stroke-linecap="round"><g transform="translate(1196.25 498.5) rotate(0 -0.5 -9)"><path d="M0.39 -0.15 C0.23 -3.16, -0.77 -14.88, -0.92 -17.91 M-0.08 -0.71 C-0.3 -3.91, -1.22 -15.97, -1.31 -18.83" stroke="#1971c2" stroke-width="2" fill="none"></path></g></g><mask></mask><g stroke-linecap="round" transform="translate(890.25 309.5) rotate(0 41.5 18)"><path d="M9 0 C33.4 1.58, 56 -0.9, 74 0 M9 0 C33.82 -0.97, 59 -0.95, 74 0 M74 0 C80.28 1.82, 83.39 4.88, 83 9 M74 0 C77.81 1.31, 83.59 5.09, 83 9 M83 9 C83.8 14.99, 81.82 24.53, 83 27 M83 9 C83.1 13.64, 83.52 19.88, 83 27 M83 27 C83.33 31.4, 80.79 34.8, 74 36 M83 27 C84.68 34.19, 81.83 37.96, 74 36 M74 36 C58.88 34, 39.23 37.55, 9 36 M74 36 C52.59 34.93, 33.29 36.56, 9 36 M9 36 C4.64 36.93, -1.82 34.74, 0 27 M9 36 C0.89 35.1, 0.93 34.78, 0 27 M0 27 C-0.01 21.69, 0.67 12.48, 0 9 M0 27 C-0.67 22.27, 0.69 18.15, 0 9 M0 9 C0.96 4.71, 2.94 0.64, 9 0 M0 9 C-2.11 1.11, 3.72 2.07, 9 0" stroke="#1971c2" stroke-width="2" fill="none"></path></g><g transform="translate(904.8100204467773 315) rotate(0 26.939979553222656 12.5)"><text x="26.939979553222656" y="17.52" font-family="Virgil, Segoe UI Emoji" font-size="20px" fill="#1971c2" text-anchor="middle" style="white-space: pre;" direction="ltr" dominant-baseline="alphabetic">wlan0</text></g><g stroke-linecap="round" transform="translate(986.75 372.5) rotate(0 41.5 18)"><path d="M9 0 C35.5 1.72, 59.49 0.65, 74 0 M9 0 C23.65 1.4, 38.21 1.43, 74 0 M74 0 C78.1 1.14, 83.51 4.82, 83 9 M74 0 C82.22 -1.68, 80.86 4.2, 83 9 M83 9 C82.82 13.47, 82.41 17.67, 83 27 M83 9 C83.25 12.31, 83.46 16.52, 83 27 M83 27 C84.46 34.04, 81.59 37.7, 74 36 M83 27 C81.91 34.59, 78.45 37.5, 74 36 M74 36 C59.93 37.42, 44.63 35.07, 9 36 M74 36 C61.16 36.94, 45.77 37.35, 9 36 M9 36 C1.17 35.22, 0.81 34.55, 0 27 M9 36 C4.58 34.2, 1.72 32.8, 0 27 M0 27 C-0.8 19.85, -1.54 12.12, 0 9 M0 27 C0.3 22.52, -0.16 16.79, 0 9 M0 9 C-1.84 1.36, 3.62 1.8, 9 0 M0 9 C-0.25 1.85, 2.91 -0.23, 9 0" stroke="#1971c2" stroke-width="2" fill="none"></path></g><g transform="translate(1004.1200256347656 378) rotate(0 24.129974365234375 12.5)"><text x="24.129974365234375" y="17.52" font-family="Virgil, Segoe UI Emoji" font-size="20px" fill="#1971c2" text-anchor="middle" style="white-space: pre;" direction="ltr" dominant-baseline="alphabetic">tap0</text></g><g transform="translate(1015.25 416.5) rotate(0 18.219985961914062 12.5)"><text x="0" y="17.52" font-family="Virgil, Segoe UI Emoji" font-size="20px" fill="#1971c2" text-anchor="start" style="white-space: pre;" direction="ltr" dominant-baseline="alphabetic">.x.2</text></g><g stroke-linecap="round" transform="translate(699.75 442.5) rotate(0 50.5 20)"><path d="M10 0 C34.39 -0.33, 63.6 -0.22, 91 0 M10 0 C42.15 0.45, 74.76 -1.19, 91 0 M91 0 C95.81 1.04, 99.72 2.16, 101 10 M91 0 C99.26 -0.1, 101.28 2.71, 101 10 M101 10 C101.37 16.51, 99.25 23.15, 101 30 M101 10 C101.94 15.65, 100.67 20.3, 101 30 M101 30 C99.66 37.97, 96.1 38.08, 91 40 M101 30 C103.28 37.06, 98.55 39.38, 91 40 M91 40 C74.56 42.07, 56.12 38.61, 10 40 M91 40 C60.07 40.46, 29.01 38.9, 10 40 M10 40 C4.83 39.83, 1.48 37.25, 0 30 M10 40 C1.75 39.05, -0.54 34.76, 0 30 M0 30 C1.05 26.54, 1.72 21.09, 0 10 M0 30 C0.5 24.26, 0.08 16.22, 0 10 M0 10 C-0.07 3.13, 2.76 -1.49, 10 0 M0 10 C-1.01 1.73, 3.96 -0.68, 10 0" stroke="#1971c2" stroke-width="2" fill="none"></path></g><g transform="translate(727.3100204467773 450) rotate(0 22.939979553222656 12.5)"><text x="22.939979553222656" y="17.52" font-family="Virgil, Segoe UI Emoji" font-size="20px" fill="#1971c2" text-anchor="middle" style="white-space: pre;" direction="ltr" dominant-baseline="alphabetic">eth0</text></g><g stroke-linecap="round"><g transform="translate(602 459) rotate(0 49 0.5)"><path d="M0.99 0.42 C17.11 0.63, 80.96 0.72, 97.21 0.77 M0.04 -0.4 C16.51 0.03, 83.18 1.8, 99.51 2.18" stroke="#1e1e1e" stroke-width="2" fill="none"></path></g></g><mask></mask><g stroke-linecap="round"><g transform="translate(524 499) rotate(0 0 -8.5)"><path d="M0.06 -0.1 C0.05 -3, 0.42 -14.56, 0.36 -17.45 M-0.57 -0.63 C-0.66 -3.47, 0.16 -14.24, 0.12 -16.98" stroke="#e03131" stroke-width="2" fill="none"></path></g></g><mask></mask><g stroke-linecap="round"><g transform="translate(786 501) rotate(0 0 -8.5)"><path d="M0.33 -0.27 C0.38 -3.12, -0.01 -14.55, -0.08 -17.41 M-0.17 0.78 C-0.16 -1.98, -0.51 -13.94, -0.55 -16.92" stroke="#1971c2" stroke-width="2" fill="none"></path></g></g><mask></mask><g stroke-linecap="round"><g transform="translate(244 304) rotate(0 0 -101.5)"><path d="M-0.36 -0.43 C-0.4 -34.02, 0.69 -168.7, 0.82 -202.46 M1.66 -1.7 C1.43 -35.58, 0.6 -170.96, 0.3 -204.29" stroke="#1e1e1e" stroke-width="2" fill="none"></path></g></g><mask></mask><g stroke-linecap="round"><g transform="translate(929 306) rotate(0 0 -25)"><path d="M-0.38 0.2 C-0.45 -8.24, 0.28 -42.67, 0.31 -50.98 M1.62 -0.74 C1.36 -9.03, -0.03 -41.44, -0.48 -49.95" stroke="#1e1e1e" stroke-width="2" fill="none"></path></g></g><mask></mask><g stroke-linecap="round"><g transform="translate(928 256) rotate(0 -341.5 0)"><path d="M-0.38 -0.8 C-114.2 -0.95, -568.39 -0.97, -682.07 -0.95 M1.63 1.39 C-112.35 1.37, -568.43 0.27, -682.53 0.09" stroke="#1e1e1e" stroke-width="2" fill="none"></path></g></g><mask></mask><g stroke-linecap="round" transform="translate(159 46) rotate(0 88 27.5)"><path d="M13.75 0 C50.56 -0.23, 87.97 3.01, 162.25 0 M13.75 0 C69.59 -1.11, 125.45 0.08, 162.25 0 M162.25 0 C172.39 1.24, 175.83 5.45, 176 13.75 M162.25 0 C173.39 0.23, 175.09 2.69, 176 13.75 M176 13.75 C174.34 25.24, 174.79 32.25, 176 41.25 M176 13.75 C176.84 19.92, 175.95 27.58, 176 41.25 M176 41.25 C175.86 48.74, 172.91 54.69, 162.25 55 M176 41.25 C177.82 51.2, 169.82 56.21, 162.25 55 M162.25 55 C127.18 57.56, 88.59 56.99, 13.75 55 M162.25 55 C120.98 54, 79.57 54.63, 13.75 55 M13.75 55 C5.16 54.56, 1.98 51.23, 0 41.25 M13.75 55 C5.93 53.38, -1.96 48.66, 0 41.25 M0 41.25 C-0.73 33.11, 1.35 29.84, 0 13.75 M0 41.25 C-0.37 32.88, -0.15 26.48, 0 13.75 M0 13.75 C0.63 6.2, 5.78 -1.17, 13.75 0 M0 13.75 C-1.54 6.28, 5.42 0.19, 13.75 0" stroke="#1e1e1e" stroke-width="2" fill="none"></path></g><g transform="translate(233.80001068115234 61) rotate(0 13.199989318847656 12.5)"><text x="13.199989318847656" y="17.52" font-family="Virgil, Segoe UI Emoji" font-size="20px" fill="#1e1e1e" text-anchor="middle" style="white-space: pre;" direction="ltr" dominant-baseline="alphabetic">FW</text></g><g stroke-linecap="round" transform="translate(523 46) rotate(0 71 31.5)"><path d="M15.75 0 C53.9 1.17, 94.39 1.32, 126.25 0 M15.75 0 C57.6 1.02, 100.4 0.81, 126.25 0 M126.25 0 C135.11 -0.15, 141.74 4.54, 142 15.75 M126.25 0 C135.27 -0.85, 143.7 7.03, 142 15.75 M142 15.75 C142.38 23.17, 143.1 33.09, 142 47.25 M142 15.75 C141.12 24.99, 142.87 32.21, 142 47.25 M142 47.25 C141.56 58.67, 136.15 64.24, 126.25 63 M142 47.25 C142.23 59.2, 135.29 64.31, 126.25 63 M126.25 63 C102.79 63.35, 76.73 63.63, 15.75 63 M126.25 63 C98.2 63.18, 70.2 64.08, 15.75 63 M15.75 63 C6.99 61.83, 0.59 59.37, 0 47.25 M15.75 63 C5.3 63.74, -1.56 55.77, 0 47.25 M0 47.25 C-0.73 36.48, 0.59 26.29, 0 15.75 M0 47.25 C0.65 39.44, 0.05 31.98, 0 15.75 M0 15.75 C0.12 5.21, 4.13 1.66, 15.75 0 M0 15.75 C-0.89 6.93, 3.7 2.02, 15.75 0" stroke="#1e1e1e" stroke-width="2" fill="none"></path></g><g transform="translate(564.6800308227539 65) rotate(0 29.319969177246094 12.5)"><text x="29.319969177246094" y="17.52" font-family="Virgil, Segoe UI Emoji" font-size="20px" fill="#1e1e1e" text-anchor="middle" style="white-space: pre;" direction="ltr" dominant-baseline="alphabetic">switch</text></g><g transform="translate(541 118) rotate(0 55.26996612548828 12.5)"><text x="0" y="17.52" font-family="Virgil, Segoe UI Emoji" font-size="20px" fill="#1e1e1e" text-anchor="start" style="white-space: pre;" direction="ltr" dominant-baseline="alphabetic">10.10.0.0/16</text></g><g transform="translate(546 10) rotate(0 46.579978942871094 12.5)"><text x="0" y="17.52" font-family="Virgil, Segoe UI Emoji" font-size="20px" fill="#1e1e1e" text-anchor="start" style="white-space: pre;" direction="ltr" dominant-baseline="alphabetic">10.10.10.10</text></g><g stroke-linecap="round"><g transform="translate(338 364) rotate(0 125.5 -108)"><path d="M0.38 0.93 C5.27 -30.58, -11.86 -151.65, 29.87 -187.87 C71.59 -224.1, 213.84 -211.89, 250.72 -216.41" stroke="#1e1e1e" stroke-width="2.5" fill="none" stroke-dasharray="8 10"></path></g></g><mask></mask><g stroke-linecap="round"><g transform="translate(591 149) rotate(0 218 111.5)"><path d="M0.71 -0.77 C64.36 2.09, 310.69 -20.74, 383.07 16.37 C455.44 53.48, 426.28 187.4, 434.96 221.89" stroke="#1e1e1e" stroke-width="2.5" fill="none" stroke-dasharray="8 10"></path></g></g><mask></mask></svg>